{"asset":{"version":"2.0","generator":"THREE.GLTFExporter"},"scenes":[{"nodes":[0,1,2,3,4,5,6,7,8,9,10,11,12,13,14,15]}],"scene":0,"nodes":[{},{"matrix":[1,0,0,0,0,1,0,0,0,0,1,0,10,10,5,1],"extensions":{"KHR_lights_punctual":{"light":0}}},{"matrix":[1,0,0,0,0,1,0,0,0,0,1,0,-1,0.29000000000000004,0,1],"name":"Component_2_Left_Bridge","mesh":0},{"matrix":[1,0,0,0,0,1,0,0,0,0,1,0,0,0.29000000000000004,0,1],"name":"Component_3_Middle_Bridge","mesh":0},{"matrix":[1,0,0,0,0,1,0,0,0,0,1,0,1,0.29000000000000004,0,1],"name":"Component_4_Right_Bridge","mesh":0},{"matrix":[1,0,0,0,0,1,0,0,0,0,1,0,0,0.13,0,1],"name":"Middle_Support","mesh":1},{"matrix":[1,0,0,0,0,2.220446049250313e-16,1,0,0,-1,2.220446049250313e-16,0,-0.5,0.36,0.3,1],"name":"Bolt_1","mesh":2},{"matrix":[1,0,0,0,0,2.220446049250313e-16,1,0,0,-1,2.220446049250313e-16,0,-0.5,0.36,-0.3,1],"name":"Bolt_2","mesh":2},{"matrix":[1,0,0,0,0,2.220446049250313e-16,1,0,0,-1,2.220446049250313e-16,0,-0.5,0.36,0.15,1],"name":"Bolt_3","mesh":2},{"matrix":[1,0,0,0,0,2.220446049250313e-16,1,0,0,-1,2.220446049250313e-16,0,-0.5,0.36,-0.15,1],"name":"Bolt_4","mesh":2},{"matrix":[1,0,0,0,0,2.220446049250313e-16,1,0,0,-1,2.220446049250313e-16,0,0.5,0.36,0.3,1],"name":"Bolt_5","mesh":2},{"matrix":[1,0,0,0,0,2.220446049250313e-16,1,0,0,-1,2.220446049250313e-16,0,0.5,0.36,-0.3,1],"name":"Bolt_6","mesh":2},{"matrix":[1,0,0,0,0,2.220446049250313e-16,1,0,0,-1,2.220446049250313e-16,0,0.5,0.36,0.15,1],"name":"Bolt_7","mesh":2},{"matrix":[1,0,0,0,0,2.220446049250313e-16,1,0,0,-1,2.220446049250313e-16,0,0.5,0.36,-0.15,1],"name":"Bolt_8","mesh":2},{"matrix":[1,0,0,0,0,2.220446049250313e-16,-1,0,0,1,2.220446049250313e-16,0,0,0,0,1],"name":"Ground","mesh":3},{"mesh":4}],"extensions":{"KHR_lights_punctual":{"lights":[{"color":[1,1,1],"intensity":0.8,"type":"directional"}]}},"bufferViews":[{"buffer":0,"byteOffset":0,"byteLength":288,"target":34962,"byteStride":12},{"buffer":0,"byteOffset":288,"byteLength":288,"target":34962,"byteStride":12},{"buffer":0,"byteOffset":576,"byteLength":192,"target":34962,"byteStride":8},{"buffer":0,"byteOffset":768,"byteLength":72,"target":34963},{"buffer":0,"byteOffset":840,"byteLength":288,"target":34962,"byteStride":12},{"buffer":0,"byteOffset":1128,"byteLength":288,"target":34962,"byteStride":12},{"buffer":0,"byteOffset":1416,"byteLength":192,"target":34962,"byteStride":8},{"buffer":0,"byteOffset":1608,"byteLength":72,"target":34963},{"buffer":0,"byteOffset":1680,"byteLength":912,"target":34962,"byteStride":12},{"buffer":0,"byteOffset":2592,"byteLength":912,"target":34962,"byteStride":12},{"buffer":0,"byteOffset":3504,"byteLength":608,"target":34962,"byteStride":8},{"buffer":0,"byteOffset":4112,"byteLength":288,"target":34963},{"buffer":0,"byteOffset":4400,"byteLength":48,"target":34962,"byteStride":12},{"buffer":0,"byteOffset":4448,"byteLength":48,"target":34962,"byteStride":12},{"buffer":0,"byteOffset":4496,"byteLength":32,"target":34962,"byteStride":8},{"buffer":0,"byteOffset":4528,"byteLength":12,"target":34963},{"buffer":0,"byteOffset":4540,"byteLength":72,"target":34962,"byteStride":12},{"buffer":0,"byteOffset":4612,"byteLength":72,"target":34962,"byteStride":12}],"buffers":[{"byteLength":4684,"uri":"data:application/octet-stream;base64,"}],"accessors":[{"bufferView":0,"componentType":5126,"count":24,"max":[0.5,0.029999999329447746,0.375],"min":[-0.5,-0.029999999329447746,-0.375],"type":"VEC3"},{"bufferView":1,"componentType":5126,"count":24,"max":[1,1,1],"min":[-1,-1,-1],"type":"VEC3"},{"bufferView":2,"componentType":5126,"count":24,"max":[1,1],"min":[0,0],"type":"VEC2"},{"bufferView":3,"componentType":5123,"count":36,"max":[23],"min":[0],"type":"SCALAR"},{"bufferView":4,"componentType":5126,"count":24,"max":[0.22499999403953552,0.12999999523162842,0.12999999523162842],"min":[-0.22499999403953552,-0.12999999523162842,-0.12999999523162842],"type":"VEC3"},{"bufferView":5,"componentType":5126,"count":24,"max":[1,1,1],"min":[-1,-1,-1],"type":"VEC3"},{"bufferView":6,"componentType":5126,"count":24,"max":[1,1],"min":[0,0],"type":"VEC2"},{"bufferView":7,"componentType":5123,"count":36,"max":[23],"min":[0],"type":"SCALAR"},{"bufferView":8,"componentType":5126,"count":76,"max":[0.019999999552965164,0.03999999910593033,0.019999999552965164],"min":[-0.019999999552965164,-0.03999999910593033,-0.019999999552965164],"type":"VEC3"},{"bufferView":9,"componentType":5126,"count":76,"max":[1,1,1],"min":[-1,-1,-1],"type":"VEC3"},{"bufferView":10,"componentType":5126,"count":76,"max":[1,1],"min":[0,0],"type":"VEC2"},{"bufferView":11,"componentType":5123,"count":144,"max":[75],"min":[0],"type":"SCALAR"},{"bufferView":12,"componentType":5126,"count":4,"max":[5,5,0],"min":[-5,-5,0],"type":"VEC3"},{"bufferView":13,"componentType":5126,"count":4,"max":[0,0,1],"min":[0,0,1],"type":"VEC3"},{"bufferView":14,"componentType":5126,"count":4,"max":[1,1],"min":[0,0],"type":"VEC2"},{"bufferView":15,"componentType":5123,"count":6,"max":[3],"min":[0],"type":"SCALAR"},{"bufferView":16,"componentType":5126,"count":6,"max":[2,2,2],"min":[0,0,0],"type":"VEC3"},{"bufferView":17,"componentType":5126,"count":6,"max":[1,1,1],"min":[0,0,0],"type":"VEC3"}],"materials":[{"pbrMetallicRoughness":{"baseColorFactor":[0.2901960784313726,0.5647058823529412,0.8862745098039215,0.9],"metallicFactor":0.7,"roughnessFactor":0.3},"alphaMode":"BLEND","extensions":{"KHR_materials_volume":{"thicknessFactor":0.01,"attenuationDistance":0,"attenuationColor":[1,1,1]}}},{"pbrMetallicRoughness":{"baseColorFactor":[0.49411764705882355,0.8274509803921568,0.12941176470588237,1],"metallicFactor":0.3,"roughnessFactor":0.6},"extensions":{"KHR_materials_volume":{"thicknessFactor":0.01,"attenuationDistance":0,"attenuationColor":[1,1,1]}}},{"pbrMetallicRoughness":{"baseColorFactor":[0.5333333333333333,0.5333333333333333,0.5333333333333333,1],"metallicFactor":0.9,"roughnessFactor":0.1},"extensions":{"KHR_materials_volume":{"thicknessFactor":0.01,"attenuationDistance":0,"attenuationColor":[1,1,1]}}},{"pbrMetallicRoughness":{"baseColorFactor":[0.8,0.8,0.8,1],"metallicFactor":0.5,"roughnessFactor":0.5}},{"pbrMetallicRoughness":{"metallicFactor":0.5,"roughnessFactor":0.5}}],"meshes":[{"primitives":[{"mode":4,"attributes":{"POSITION":0,"NORMAL":1,"TEXCOORD_0":2},"indices":3,"material":0}]},{"primitives":[{"mode":4,"attributes":{"POSITION":4,"NORMAL":5,"TEXCOORD_0":6},"indices":7,"material":1}]},{"primitives":[{"mode":4,"attributes":{"POSITION":8,"NORMAL":9,"TEXCOORD_0":10},"indices":11,"material":2}]},{"primitives":[{"mode":4,"attributes":{"POSITION":12,"NORMAL":13,"TEXCOORD_0":14},"indices":15,"material":3}]},{"primitives":[{"mode":1,"attributes":{"POSITION":16,"COLOR_0":17},"material":4}]}],"extensionsUsed":["KHR_lights_punctual","KHR_materials_volume"]}